<mxfile host="app.diagrams.net" modified="2024-02-02T16:39:30.693Z" agent="Mozilla/5.0 (Windows NT 10.0; Win64; x64) AppleWebKit/537.36 (KHTML, like Gecko) Chrome/121.0.0.0 Safari/537.36" etag="yszN_jrgr12Bmzhcb7XT" version="23.0.2" type="github">
  <diagram name="第 1 页" id="4w94POjv_R8uFFSW8boB">
    <mxGraphModel dx="1434" dy="746" grid="1" gridSize="10" guides="1" tooltips="1" connect="1" arrows="1" fold="1" page="1" pageScale="1" pageWidth="827" pageHeight="1169" math="0" shadow="0">
      <root>
        <mxCell id="0" />
        <mxCell id="1" parent="0" />
        <mxCell id="XShxcRv72XsBA-reiixP-1" value="" style="endArrow=none;dashed=1;html=1;rounded=0;" edge="1" parent="1">
          <mxGeometry width="50" height="50" relative="1" as="geometry">
            <mxPoint x="160" y="440" as="sourcePoint" />
            <mxPoint x="1080" y="440" as="targetPoint" />
          </mxGeometry>
        </mxCell>
        <mxCell id="XShxcRv72XsBA-reiixP-2" value="" style="endArrow=none;dashed=1;html=1;rounded=0;" edge="1" parent="1">
          <mxGeometry width="50" height="50" relative="1" as="geometry">
            <mxPoint x="160" y="640" as="sourcePoint" />
            <mxPoint x="1080" y="640" as="targetPoint" />
          </mxGeometry>
        </mxCell>
        <mxCell id="XShxcRv72XsBA-reiixP-3" value="认知层" style="text;html=1;strokeColor=none;fillColor=none;align=center;verticalAlign=middle;whiteSpace=wrap;rounded=0;fontSize=20;" vertex="1" parent="1">
          <mxGeometry x="40" y="330" width="110" height="30" as="geometry" />
        </mxCell>
        <mxCell id="XShxcRv72XsBA-reiixP-4" value="交互层" style="text;html=1;strokeColor=none;fillColor=none;align=center;verticalAlign=middle;whiteSpace=wrap;rounded=0;fontSize=20;" vertex="1" parent="1">
          <mxGeometry x="40" y="530" width="110" height="30" as="geometry" />
        </mxCell>
        <mxCell id="XShxcRv72XsBA-reiixP-5" value="动力层" style="text;html=1;strokeColor=none;fillColor=none;align=center;verticalAlign=middle;whiteSpace=wrap;rounded=0;fontSize=20;" vertex="1" parent="1">
          <mxGeometry x="40" y="720" width="110" height="30" as="geometry" />
        </mxCell>
        <mxCell id="XShxcRv72XsBA-reiixP-52" style="edgeStyle=none;shape=connector;rounded=0;orthogonalLoop=1;jettySize=auto;html=1;entryX=0.5;entryY=1;entryDx=0;entryDy=0;labelBackgroundColor=default;strokeColor=default;align=center;verticalAlign=middle;fontFamily=Helvetica;fontSize=11;fontColor=default;endArrow=none;endFill=0;" edge="1" parent="1" source="XShxcRv72XsBA-reiixP-10" target="XShxcRv72XsBA-reiixP-50">
          <mxGeometry relative="1" as="geometry" />
        </mxCell>
        <mxCell id="XShxcRv72XsBA-reiixP-72" style="edgeStyle=none;shape=connector;rounded=0;orthogonalLoop=1;jettySize=auto;html=1;labelBackgroundColor=default;strokeColor=default;align=center;verticalAlign=middle;fontFamily=Helvetica;fontSize=11;fontColor=default;endArrow=none;endFill=0;" edge="1" parent="1" source="XShxcRv72XsBA-reiixP-10" target="XShxcRv72XsBA-reiixP-56">
          <mxGeometry relative="1" as="geometry" />
        </mxCell>
        <mxCell id="XShxcRv72XsBA-reiixP-78" style="edgeStyle=none;shape=connector;rounded=0;orthogonalLoop=1;jettySize=auto;html=1;entryX=0.5;entryY=1;entryDx=0;entryDy=0;labelBackgroundColor=default;strokeColor=default;align=center;verticalAlign=middle;fontFamily=Helvetica;fontSize=11;fontColor=default;endArrow=none;endFill=0;" edge="1" parent="1" source="XShxcRv72XsBA-reiixP-10" target="XShxcRv72XsBA-reiixP-74">
          <mxGeometry relative="1" as="geometry" />
        </mxCell>
        <mxCell id="XShxcRv72XsBA-reiixP-10" value="心智模型" style="rounded=1;whiteSpace=wrap;html=1;fillColor=#e1d5e7;strokeColor=#9673a6;" vertex="1" parent="1">
          <mxGeometry x="520" y="680" width="80" height="40" as="geometry" />
        </mxCell>
        <mxCell id="XShxcRv72XsBA-reiixP-51" style="edgeStyle=none;shape=connector;rounded=0;orthogonalLoop=1;jettySize=auto;html=1;entryX=0.5;entryY=1;entryDx=0;entryDy=0;labelBackgroundColor=default;strokeColor=default;align=center;verticalAlign=middle;fontFamily=Helvetica;fontSize=11;fontColor=default;endArrow=none;endFill=0;" edge="1" parent="1" source="XShxcRv72XsBA-reiixP-21" target="XShxcRv72XsBA-reiixP-10">
          <mxGeometry relative="1" as="geometry" />
        </mxCell>
        <mxCell id="XShxcRv72XsBA-reiixP-57" style="edgeStyle=none;shape=connector;rounded=0;orthogonalLoop=1;jettySize=auto;html=1;entryX=0.5;entryY=1;entryDx=0;entryDy=0;labelBackgroundColor=default;strokeColor=default;align=center;verticalAlign=middle;fontFamily=Helvetica;fontSize=11;fontColor=default;endArrow=none;endFill=0;" edge="1" parent="1" source="XShxcRv72XsBA-reiixP-21" target="XShxcRv72XsBA-reiixP-56">
          <mxGeometry relative="1" as="geometry" />
        </mxCell>
        <mxCell id="XShxcRv72XsBA-reiixP-21" value="神经网络" style="rounded=1;whiteSpace=wrap;html=1;fillColor=#e1d5e7;strokeColor=#9673a6;" vertex="1" parent="1">
          <mxGeometry x="670" y="760" width="80" height="40" as="geometry" />
        </mxCell>
        <mxCell id="XShxcRv72XsBA-reiixP-65" style="edgeStyle=none;shape=connector;rounded=0;orthogonalLoop=1;jettySize=auto;html=1;entryX=0.5;entryY=0;entryDx=0;entryDy=0;labelBackgroundColor=default;strokeColor=default;align=center;verticalAlign=middle;fontFamily=Helvetica;fontSize=11;fontColor=default;endArrow=none;endFill=0;" edge="1" parent="1" source="XShxcRv72XsBA-reiixP-34" target="XShxcRv72XsBA-reiixP-63">
          <mxGeometry relative="1" as="geometry" />
        </mxCell>
        <mxCell id="XShxcRv72XsBA-reiixP-34" value="真实世界" style="rounded=1;whiteSpace=wrap;html=1;fillColor=#dae8fc;strokeColor=#6c8ebf;" vertex="1" parent="1">
          <mxGeometry x="470" y="240" width="80" height="40" as="geometry" />
        </mxCell>
        <mxCell id="XShxcRv72XsBA-reiixP-71" style="edgeStyle=none;shape=connector;rounded=0;orthogonalLoop=1;jettySize=auto;html=1;entryX=0;entryY=0.5;entryDx=0;entryDy=0;labelBackgroundColor=default;strokeColor=default;align=center;verticalAlign=middle;fontFamily=Helvetica;fontSize=11;fontColor=default;endArrow=none;endFill=0;" edge="1" parent="1" source="XShxcRv72XsBA-reiixP-50" target="XShxcRv72XsBA-reiixP-68">
          <mxGeometry relative="1" as="geometry" />
        </mxCell>
        <mxCell id="XShxcRv72XsBA-reiixP-79" style="edgeStyle=none;shape=connector;rounded=0;orthogonalLoop=1;jettySize=auto;html=1;entryX=0;entryY=0.5;entryDx=0;entryDy=0;labelBackgroundColor=default;strokeColor=default;align=center;verticalAlign=middle;fontFamily=Helvetica;fontSize=11;fontColor=default;endArrow=none;endFill=0;" edge="1" parent="1" source="XShxcRv72XsBA-reiixP-50" target="XShxcRv72XsBA-reiixP-58">
          <mxGeometry relative="1" as="geometry" />
        </mxCell>
        <mxCell id="XShxcRv72XsBA-reiixP-82" style="edgeStyle=none;shape=connector;rounded=0;orthogonalLoop=1;jettySize=auto;html=1;entryX=0.5;entryY=1;entryDx=0;entryDy=0;labelBackgroundColor=default;strokeColor=default;align=center;verticalAlign=middle;fontFamily=Helvetica;fontSize=11;fontColor=default;endArrow=none;endFill=0;" edge="1" parent="1" source="XShxcRv72XsBA-reiixP-50" target="XShxcRv72XsBA-reiixP-81">
          <mxGeometry relative="1" as="geometry" />
        </mxCell>
        <mxCell id="XShxcRv72XsBA-reiixP-50" value="预测加工" style="rounded=1;whiteSpace=wrap;html=1;fillColor=#d5e8d4;strokeColor=#82b366;" vertex="1" parent="1">
          <mxGeometry x="590" y="560" width="80" height="40" as="geometry" />
        </mxCell>
        <mxCell id="XShxcRv72XsBA-reiixP-55" style="edgeStyle=none;shape=connector;rounded=0;orthogonalLoop=1;jettySize=auto;html=1;entryX=0.5;entryY=1;entryDx=0;entryDy=0;labelBackgroundColor=default;strokeColor=default;align=center;verticalAlign=middle;fontFamily=Helvetica;fontSize=11;fontColor=default;endArrow=none;endFill=0;" edge="1" parent="1" source="XShxcRv72XsBA-reiixP-54" target="XShxcRv72XsBA-reiixP-21">
          <mxGeometry relative="1" as="geometry" />
        </mxCell>
        <mxCell id="XShxcRv72XsBA-reiixP-54" value="神经元" style="rounded=1;whiteSpace=wrap;html=1;fillColor=#e1d5e7;strokeColor=#9673a6;" vertex="1" parent="1">
          <mxGeometry x="640" y="840" width="80" height="40" as="geometry" />
        </mxCell>
        <mxCell id="XShxcRv72XsBA-reiixP-60" style="edgeStyle=none;shape=connector;rounded=0;orthogonalLoop=1;jettySize=auto;html=1;entryX=0.5;entryY=1;entryDx=0;entryDy=0;labelBackgroundColor=default;strokeColor=default;align=center;verticalAlign=middle;fontFamily=Helvetica;fontSize=11;fontColor=default;endArrow=none;endFill=0;" edge="1" parent="1" source="XShxcRv72XsBA-reiixP-56" target="XShxcRv72XsBA-reiixP-58">
          <mxGeometry relative="1" as="geometry" />
        </mxCell>
        <mxCell id="XShxcRv72XsBA-reiixP-56" value="贝叶斯大脑" style="rounded=1;whiteSpace=wrap;html=1;fillColor=#e1d5e7;strokeColor=#9673a6;" vertex="1" parent="1">
          <mxGeometry x="790" y="680" width="80" height="40" as="geometry" />
        </mxCell>
        <mxCell id="XShxcRv72XsBA-reiixP-58" value="可塑性" style="rounded=1;whiteSpace=wrap;html=1;fillColor=#d5e8d4;strokeColor=#82b366;" vertex="1" parent="1">
          <mxGeometry x="870" y="520" width="80" height="40" as="geometry" />
        </mxCell>
        <mxCell id="XShxcRv72XsBA-reiixP-62" style="edgeStyle=none;shape=connector;rounded=0;orthogonalLoop=1;jettySize=auto;html=1;entryX=0.5;entryY=0;entryDx=0;entryDy=0;labelBackgroundColor=default;strokeColor=default;align=center;verticalAlign=middle;fontFamily=Helvetica;fontSize=11;fontColor=default;endArrow=none;endFill=0;" edge="1" parent="1" source="XShxcRv72XsBA-reiixP-61" target="XShxcRv72XsBA-reiixP-58">
          <mxGeometry relative="1" as="geometry" />
        </mxCell>
        <mxCell id="XShxcRv72XsBA-reiixP-61" value="用进废退" style="rounded=1;whiteSpace=wrap;html=1;fillColor=#dae8fc;strokeColor=#6c8ebf;" vertex="1" parent="1">
          <mxGeometry x="870" y="320" width="80" height="40" as="geometry" />
        </mxCell>
        <mxCell id="XShxcRv72XsBA-reiixP-67" style="edgeStyle=none;shape=connector;rounded=0;orthogonalLoop=1;jettySize=auto;html=1;entryX=0;entryY=0.5;entryDx=0;entryDy=0;labelBackgroundColor=default;strokeColor=default;align=center;verticalAlign=middle;fontFamily=Helvetica;fontSize=11;fontColor=default;endArrow=none;endFill=0;" edge="1" parent="1" source="XShxcRv72XsBA-reiixP-63" target="XShxcRv72XsBA-reiixP-66">
          <mxGeometry relative="1" as="geometry" />
        </mxCell>
        <mxCell id="XShxcRv72XsBA-reiixP-73" style="edgeStyle=none;shape=connector;rounded=0;orthogonalLoop=1;jettySize=auto;html=1;labelBackgroundColor=default;strokeColor=default;align=center;verticalAlign=middle;fontFamily=Helvetica;fontSize=11;fontColor=default;endArrow=none;endFill=0;" edge="1" parent="1" source="XShxcRv72XsBA-reiixP-63" target="XShxcRv72XsBA-reiixP-61">
          <mxGeometry relative="1" as="geometry" />
        </mxCell>
        <mxCell id="XShxcRv72XsBA-reiixP-63" value="信号" style="rounded=1;whiteSpace=wrap;html=1;fillColor=#dae8fc;strokeColor=#6c8ebf;" vertex="1" parent="1">
          <mxGeometry x="550" y="300" width="80" height="40" as="geometry" />
        </mxCell>
        <mxCell id="XShxcRv72XsBA-reiixP-66" value="电信号" style="rounded=1;whiteSpace=wrap;html=1;fillColor=#dae8fc;strokeColor=#6c8ebf;" vertex="1" parent="1">
          <mxGeometry x="670" y="360" width="80" height="40" as="geometry" />
        </mxCell>
        <mxCell id="XShxcRv72XsBA-reiixP-69" style="edgeStyle=none;shape=connector;rounded=0;orthogonalLoop=1;jettySize=auto;html=1;entryX=0.5;entryY=1;entryDx=0;entryDy=0;labelBackgroundColor=default;strokeColor=default;align=center;verticalAlign=middle;fontFamily=Helvetica;fontSize=11;fontColor=default;endArrow=none;endFill=0;" edge="1" parent="1" source="XShxcRv72XsBA-reiixP-68" target="XShxcRv72XsBA-reiixP-66">
          <mxGeometry relative="1" as="geometry" />
        </mxCell>
        <mxCell id="XShxcRv72XsBA-reiixP-68" value="预测信号" style="rounded=1;whiteSpace=wrap;html=1;fillColor=#d5e8d4;strokeColor=#82b366;" vertex="1" parent="1">
          <mxGeometry x="710" y="480" width="80" height="40" as="geometry" />
        </mxCell>
        <mxCell id="XShxcRv72XsBA-reiixP-70" style="edgeStyle=none;shape=connector;rounded=0;orthogonalLoop=1;jettySize=auto;html=1;exitX=0.5;exitY=1;exitDx=0;exitDy=0;labelBackgroundColor=default;strokeColor=default;align=center;verticalAlign=middle;fontFamily=Helvetica;fontSize=11;fontColor=default;endArrow=none;endFill=0;" edge="1" parent="1" source="XShxcRv72XsBA-reiixP-50" target="XShxcRv72XsBA-reiixP-50">
          <mxGeometry relative="1" as="geometry" />
        </mxCell>
        <mxCell id="XShxcRv72XsBA-reiixP-75" style="edgeStyle=none;shape=connector;rounded=0;orthogonalLoop=1;jettySize=auto;html=1;entryX=0;entryY=0.5;entryDx=0;entryDy=0;labelBackgroundColor=default;strokeColor=default;align=center;verticalAlign=middle;fontFamily=Helvetica;fontSize=11;fontColor=default;endArrow=none;endFill=0;" edge="1" parent="1" source="XShxcRv72XsBA-reiixP-74" target="XShxcRv72XsBA-reiixP-50">
          <mxGeometry relative="1" as="geometry" />
        </mxCell>
        <mxCell id="XShxcRv72XsBA-reiixP-74" value="完全预测" style="rounded=1;whiteSpace=wrap;html=1;fillColor=#d5e8d4;strokeColor=#82b366;" vertex="1" parent="1">
          <mxGeometry x="360" y="520" width="80" height="40" as="geometry" />
        </mxCell>
        <mxCell id="XShxcRv72XsBA-reiixP-77" style="edgeStyle=none;shape=connector;rounded=0;orthogonalLoop=1;jettySize=auto;html=1;entryX=0.5;entryY=0;entryDx=0;entryDy=0;labelBackgroundColor=default;strokeColor=default;align=center;verticalAlign=middle;fontFamily=Helvetica;fontSize=11;fontColor=default;endArrow=none;endFill=0;" edge="1" parent="1" source="XShxcRv72XsBA-reiixP-76" target="XShxcRv72XsBA-reiixP-74">
          <mxGeometry relative="1" as="geometry" />
        </mxCell>
        <mxCell id="XShxcRv72XsBA-reiixP-76" value="无聊" style="rounded=1;whiteSpace=wrap;html=1;fillColor=#dae8fc;strokeColor=#6c8ebf;" vertex="1" parent="1">
          <mxGeometry x="320" y="360" width="80" height="40" as="geometry" />
        </mxCell>
        <mxCell id="XShxcRv72XsBA-reiixP-83" style="edgeStyle=none;shape=connector;rounded=0;orthogonalLoop=1;jettySize=auto;html=1;labelBackgroundColor=default;strokeColor=default;align=center;verticalAlign=middle;fontFamily=Helvetica;fontSize=11;fontColor=default;endArrow=none;endFill=0;" edge="1" parent="1" source="XShxcRv72XsBA-reiixP-81" target="XShxcRv72XsBA-reiixP-63">
          <mxGeometry relative="1" as="geometry" />
        </mxCell>
        <mxCell id="XShxcRv72XsBA-reiixP-81" value="幻象世界" style="rounded=1;whiteSpace=wrap;html=1;fillColor=#d5e8d4;strokeColor=#82b366;" vertex="1" parent="1">
          <mxGeometry x="480" y="480" width="80" height="40" as="geometry" />
        </mxCell>
      </root>
    </mxGraphModel>
  </diagram>
</mxfile>
